<svg viewBox="0 0 1750 1750" xmlns="http://www.w3.org/2000/svg">
  <g transform="translate(150,-25)">

    <g stroke="#8B5CF6" stroke-width="32" stroke-linejoin="round">

      <!-- === 立体侧面和底面 === -->
      <polygon points="1225,220 1475,470 1475,1070 1225,820" fill="#D6C500" />
      <polygon points="1225,820 1475,1070 1475,1670 1225,1420" fill="#1C8FE3" />
      <polygon points="25,1420 1225,1420 1475,1670 275,1670" fill="#1C8FE3" />

      <!-- 正面 -->
      <rect x="25" y="220" width="1200" height="600" fill="#FFEA00"/>
      <rect x="25" y="820" width="1200" height="600" fill="#2EA8FF"/>
    </g>

    <!-- 鼠标图标 -->
    <g transform="translate(75,250) translate(512 512) rotate(-60) scale(-1.75 1.75) translate(-512 -512)">
      <path
        d="M278.209 198.442l6.069 525.867c0.319 27.612 22.961 49.738 50.574 49.42a50 50 0 0 0 32.173-12.216l127.94-110.903 130.458 225.959c13.807 23.914 44.386 32.108 68.3 18.301l54.816-31.648c23.915-13.807 32.108-44.386 18.301-68.3l-130.457-225.96 160.128-55.387c26.097-9.026 39.935-37.5 30.908-63.597a50 50 0 0 0-21.718-26.644L353.74 154.877c-23.742-14.102-54.42-6.288-68.523 17.454a50 50 0 0 0-7.008 26.111z"
        fill="#000000"
        stroke="#ffffff"
        stroke-width="64"
        stroke-linecap="round"
        stroke-linejoin="round"
      />
    </g>

  </g>
</svg>